<svg width="26" height="26" viewBox="0 0 26 26" fill="none" xmlns="http://www.w3.org/2000/svg">
<path d="M22.75 7.58333V20.5833C22.75 21.1792 22.538 21.6894 22.1141 22.1141C21.6901 22.5388 21.1799 22.7507 20.5833 22.75H5.41667C4.82083 22.75 4.31094 22.538 3.887 22.1141C3.46306 21.6901 3.25072 21.1799 3.25 20.5833V5.41667C3.25 4.82083 3.46233 4.31094 3.887 3.887C4.31167 3.46306 4.82156 3.25072 5.41667 3.25H18.4167L22.75 7.58333ZM13 19.5C13.9028 19.5 14.6701 19.184 15.3021 18.5521C15.934 17.9201 16.25 17.1528 16.25 16.25C16.25 15.3472 15.934 14.5799 15.3021 13.9479C14.6701 13.316 13.9028 13 13 13C12.0972 13 11.3299 13.316 10.6979 13.9479C10.066 14.5799 9.75 15.3472 9.75 16.25C9.75 17.1528 10.066 17.9201 10.6979 18.5521C11.3299 19.184 12.0972 19.5 13 19.5ZM6.5 10.8333H16.25V6.5H6.5V10.8333Z" fill="#808080"/>
</svg>
